<svg xmlns="http://www.w3.org/2000/svg" width="720" height="720" viewBox="0 0 720 720" fill="none">
<rect width="720" height="720" rx="130" fill="black"/>
<path d="M585.65 311.162L536.924 358.951C536.924 358.951 536.924 359.888 536.924 360.825L584.713 408.614C584.713 408.614 585.65 409.551 585.65 410.488L549.106 547.295C549.106 548.232 548.169 548.232 548.169 548.232L411.362 584.776C410.425 584.776 410.425 584.776 409.488 583.839L361.699 536.05C361.699 536.05 360.762 536.05 359.825 536.05L312.036 583.839C311.099 583.839 311.099 584.776 310.162 584.776L173.355 548.232C172.418 548.232 172.418 547.295 172.418 547.295L134 410.488C134 409.551 134 409.551 134.937 408.614L182.726 360.825C182.726 360.825 182.726 359.888 182.726 358.951L134.937 311.162C134.937 310.225 134 310.225 134 309.288L170.544 172.481C170.544 171.544 171.481 171.544 171.481 171.544L308.288 135C309.225 135 309.225 135 310.162 135.937L357.951 183.726C357.951 183.726 358.888 183.726 359.825 183.726L407.614 135.937C407.614 135.937 408.551 135 409.488 135L546.295 171.544C547.232 171.544 547.232 172.481 547.232 172.481L583.776 309.288C585.65 310.225 585.65 310.225 585.65 311.162Z" fill="white"/>
<path d="M434.788 462.027C434.788 462.027 435.725 462.027 436.662 462.027L498.506 523.872V524.809L422.606 545.423C421.669 545.423 421.669 545.423 420.732 544.486L386.999 510.753C386.999 510.753 386.999 509.816 386.999 508.879L434.788 462.027Z" fill="black"/>
<path d="M222.083 524.809C221.146 524.809 221.146 523.872 222.083 523.872L283.927 462.027C283.927 462.027 284.864 462.027 285.801 462.027L333.59 509.816C333.59 509.816 333.59 510.753 333.59 511.69L299.856 545.423C298.919 545.423 298.919 546.36 297.982 546.36L222.083 524.809Z" fill="black"/>
<path d="M257.687 434.853C257.687 434.853 257.687 435.79 257.687 436.727L195.843 498.571H194.906L174.291 422.672C174.291 421.735 174.291 421.735 175.228 420.798L208.961 387.064C208.961 387.064 209.898 387.064 210.835 387.064L257.687 434.853Z" fill="black"/>
<path d="M194.91 222.14C194.91 221.203 195.847 221.203 195.847 222.14L257.691 283.984C257.691 283.984 257.691 284.921 257.691 285.859L209.903 333.647C209.903 333.647 208.966 333.647 208.029 333.647L174.295 299.914C174.295 298.977 173.358 298.977 173.358 298.04L194.91 222.14Z" fill="black"/>
<path d="M285.803 257.746C285.803 257.746 284.866 257.746 283.929 257.746L222.085 195.901V194.964L297.985 174.35C298.922 174.35 298.922 174.35 299.859 175.287L333.592 209.02C333.592 209.02 333.592 209.957 333.592 210.894L285.803 257.746Z" fill="black"/>
<path d="M497.573 194.968C498.51 194.968 498.51 195.905 497.573 195.905L435.729 257.749C435.729 257.749 434.792 257.749 433.855 257.749L386.066 209.96C386.066 209.96 386.066 209.023 386.066 208.086L419.8 174.353C419.8 174.353 420.737 173.416 421.674 173.416L497.573 194.968Z" fill="black"/>
<path d="M461.962 284.919C461.962 284.919 461.962 283.982 461.962 283.045L523.806 221.201H524.743L545.358 297.101C545.358 298.038 545.358 298.038 544.421 298.975L510.688 332.708C510.688 332.708 509.751 332.708 508.814 332.708L461.962 284.919Z" fill="black"/>
<path d="M434.788 311.168C434.788 311.168 435.725 311.168 436.662 311.168L484.45 358.957C484.45 358.957 484.45 359.894 484.45 360.831L436.662 408.619C436.662 408.619 435.725 408.619 434.788 408.619L386.999 360.831C386.999 360.831 386.999 359.894 386.999 358.957L434.788 311.168Z" fill="black"/>
<path d="M408.555 434.853C408.555 434.853 408.555 435.79 408.555 436.727L360.766 484.516C360.766 484.516 359.829 484.516 358.892 484.516L311.104 436.727C311.104 436.727 311.104 435.79 311.104 434.853L358.892 387.064C358.892 387.064 359.829 387.064 360.766 387.064L408.555 434.853Z" fill="black"/>
<path d="M358.892 235.254C358.892 235.254 359.829 235.254 360.766 235.254L408.555 283.043C408.555 283.043 408.555 283.98 408.555 284.917L360.766 332.705C360.766 332.705 359.829 332.705 358.892 332.705L311.104 284.917C311.104 284.917 311.104 283.98 311.104 283.043L358.892 235.254Z" fill="black"/>
<path d="M285.803 408.619C285.803 408.619 284.866 408.619 283.929 408.619L236.141 360.831C236.141 360.831 236.141 359.894 236.141 358.957L283.929 311.168C283.929 311.168 284.866 311.168 285.803 311.168L333.592 358.957C333.592 358.957 333.592 359.894 333.592 360.831L285.803 408.619Z" fill="black"/>
<path d="M524.743 497.638C524.743 498.575 523.806 498.575 523.806 497.638L461.962 435.794C461.962 435.794 461.962 434.857 461.962 433.92L509.751 386.131C509.751 386.131 510.688 386.131 511.625 386.131L545.358 419.864C545.358 419.864 546.295 420.801 546.295 421.738L524.743 497.638Z" fill="black"/>
</svg>